<svg width="163" height="138" viewBox="0 0 163 138" fill="none" xmlns="http://www.w3.org/2000/svg">
<path d="M9.01562 137H4.0625L4.09375 133.344H9.01562C10.2448 133.344 11.2812 133.068 12.125 132.516C12.9688 131.953 13.6042 131.135 14.0312 130.062C14.4688 128.99 14.6875 127.693 14.6875 126.172V125.062C14.6875 123.896 14.5625 122.87 14.3125 121.984C14.0729 121.099 13.7135 120.354 13.2344 119.75C12.7552 119.146 12.1667 118.693 11.4688 118.391C10.7708 118.078 9.96875 117.922 9.0625 117.922H3.96875V114.25H9.0625C10.5833 114.25 11.974 114.51 13.2344 115.031C14.5052 115.542 15.6042 116.276 16.5312 117.234C17.4583 118.193 18.1719 119.339 18.6719 120.672C19.1823 121.995 19.4375 123.469 19.4375 125.094V126.172C19.4375 127.786 19.1823 129.26 18.6719 130.594C18.1719 131.927 17.4583 133.073 16.5312 134.031C15.6146 134.979 14.5156 135.714 13.2344 136.234C11.9635 136.745 10.5573 137 9.01562 137ZM6.71875 114.25V137H2.03125V114.25H6.71875ZM27.0625 123.781V137H22.5625V120.094H26.7969L27.0625 123.781ZM32.1562 119.984L32.0781 124.156C31.8594 124.125 31.5938 124.099 31.2812 124.078C30.9792 124.047 30.7031 124.031 30.4531 124.031C29.8177 124.031 29.2656 124.115 28.7969 124.281C28.3385 124.438 27.9531 124.672 27.6406 124.984C27.3385 125.297 27.1094 125.677 26.9531 126.125C26.8073 126.573 26.724 127.083 26.7031 127.656L25.7969 127.375C25.7969 126.281 25.9062 125.276 26.125 124.359C26.3438 123.432 26.6615 122.625 27.0781 121.938C27.5052 121.25 28.026 120.719 28.6406 120.344C29.2552 119.969 29.9583 119.781 30.75 119.781C31 119.781 31.2552 119.802 31.5156 119.844C31.776 119.875 31.9896 119.922 32.1562 119.984ZM39.0312 120.094V137H34.5156V120.094H39.0312ZM34.2344 115.688C34.2344 115.031 34.4635 114.49 34.9219 114.062C35.3802 113.635 35.9948 113.422 36.7656 113.422C37.526 113.422 38.1354 113.635 38.5938 114.062C39.0625 114.49 39.2969 115.031 39.2969 115.688C39.2969 116.344 39.0625 116.885 38.5938 117.312C38.1354 117.74 37.526 117.953 36.7656 117.953C35.9948 117.953 35.3802 117.74 34.9219 117.312C34.4635 116.885 34.2344 116.344 34.2344 115.688ZM48.5 133.719L52.25 120.094H56.9531L51.25 137H48.4062L48.5 133.719ZM45.9219 120.094L49.6875 133.734L49.7656 137H46.9062L41.2031 120.094H45.9219ZM66.5312 137.312C65.2188 137.312 64.0417 137.104 63 136.688C61.9583 136.26 61.0729 135.672 60.3438 134.922C59.625 134.172 59.0729 133.302 58.6875 132.312C58.3021 131.312 58.1094 130.25 58.1094 129.125V128.5C58.1094 127.219 58.2917 126.047 58.6562 124.984C59.0208 123.922 59.5417 123 60.2188 122.219C60.9062 121.438 61.7396 120.839 62.7188 120.422C63.6979 119.995 64.8021 119.781 66.0312 119.781C67.2292 119.781 68.2917 119.979 69.2188 120.375C70.1458 120.771 70.9219 121.333 71.5469 122.062C72.1823 122.792 72.6615 123.667 72.9844 124.688C73.3073 125.698 73.4688 126.823 73.4688 128.062V129.938H60.0312V126.938H69.0469V126.594C69.0469 125.969 68.9323 125.411 68.7031 124.922C68.4844 124.422 68.151 124.026 67.7031 123.734C67.2552 123.443 66.6823 123.297 65.9844 123.297C65.3906 123.297 64.8802 123.427 64.4531 123.688C64.026 123.948 63.6771 124.312 63.4062 124.781C63.1458 125.25 62.9479 125.802 62.8125 126.438C62.6875 127.062 62.625 127.75 62.625 128.5V129.125C62.625 129.802 62.7188 130.427 62.9062 131C63.1042 131.573 63.3802 132.068 63.7344 132.484C64.099 132.901 64.5365 133.224 65.0469 133.453C65.5677 133.682 66.1562 133.797 66.8125 133.797C67.625 133.797 68.3802 133.641 69.0781 133.328C69.7865 133.005 70.3958 132.521 70.9062 131.875L73.0938 134.25C72.7396 134.76 72.2552 135.25 71.6406 135.719C71.0365 136.188 70.3073 136.573 69.4531 136.875C68.599 137.167 67.625 137.312 66.5312 137.312ZM80.4375 123.703V137H75.9375V120.094H80.1562L80.4375 123.703ZM79.7812 127.953H78.5625C78.5625 126.703 78.724 125.578 79.0469 124.578C79.3698 123.568 79.8229 122.708 80.4062 122C80.9896 121.281 81.6823 120.734 82.4844 120.359C83.2969 119.974 84.2031 119.781 85.2031 119.781C85.9948 119.781 86.7188 119.896 87.375 120.125C88.0312 120.354 88.5938 120.719 89.0625 121.219C89.5417 121.719 89.9062 122.38 90.1562 123.203C90.4167 124.026 90.5469 125.031 90.5469 126.219V137H86.0156V126.203C86.0156 125.453 85.9115 124.87 85.7031 124.453C85.4948 124.036 85.1875 123.745 84.7812 123.578C84.3854 123.401 83.8958 123.312 83.3125 123.312C82.7083 123.312 82.1823 123.432 81.7344 123.672C81.2969 123.911 80.9323 124.245 80.6406 124.672C80.3594 125.089 80.1458 125.578 80 126.141C79.8542 126.703 79.7812 127.307 79.7812 127.953ZM111.078 128.891H105.281V125.234H111.078C111.974 125.234 112.703 125.089 113.266 124.797C113.828 124.495 114.24 124.078 114.5 123.547C114.76 123.016 114.891 122.417 114.891 121.75C114.891 121.073 114.76 120.443 114.5 119.859C114.24 119.276 113.828 118.807 113.266 118.453C112.703 118.099 111.974 117.922 111.078 117.922H106.906V137H102.219V114.25H111.078C112.859 114.25 114.385 114.573 115.656 115.219C116.938 115.854 117.917 116.734 118.594 117.859C119.271 118.984 119.609 120.271 119.609 121.719C119.609 123.188 119.271 124.458 118.594 125.531C117.917 126.604 116.938 127.432 115.656 128.016C114.385 128.599 112.859 128.891 111.078 128.891ZM127.312 113V137H122.797V113H127.312ZM141.031 132.953V120.094H145.531V137H141.297L141.031 132.953ZM141.531 129.484L142.859 129.453C142.859 130.578 142.729 131.625 142.469 132.594C142.208 133.552 141.818 134.385 141.297 135.094C140.776 135.792 140.12 136.339 139.328 136.734C138.536 137.12 137.604 137.312 136.531 137.312C135.708 137.312 134.948 137.198 134.25 136.969C133.562 136.729 132.969 136.359 132.469 135.859C131.979 135.349 131.594 134.698 131.312 133.906C131.042 133.104 130.906 132.141 130.906 131.016V120.094H135.406V131.047C135.406 131.547 135.464 131.969 135.578 132.312C135.703 132.656 135.875 132.938 136.094 133.156C136.312 133.375 136.568 133.531 136.859 133.625C137.161 133.719 137.495 133.766 137.859 133.766C138.786 133.766 139.516 133.578 140.047 133.203C140.589 132.828 140.969 132.318 141.188 131.672C141.417 131.016 141.531 130.286 141.531 129.484ZM158.109 132.328C158.109 132.005 158.016 131.714 157.828 131.453C157.641 131.193 157.292 130.953 156.781 130.734C156.281 130.505 155.557 130.297 154.609 130.109C153.755 129.922 152.958 129.688 152.219 129.406C151.49 129.115 150.854 128.766 150.312 128.359C149.781 127.953 149.365 127.474 149.062 126.922C148.76 126.359 148.609 125.719 148.609 125C148.609 124.292 148.76 123.625 149.062 123C149.375 122.375 149.818 121.823 150.391 121.344C150.974 120.854 151.682 120.474 152.516 120.203C153.359 119.922 154.307 119.781 155.359 119.781C156.828 119.781 158.089 120.016 159.141 120.484C160.203 120.953 161.016 121.599 161.578 122.422C162.151 123.234 162.438 124.161 162.438 125.203H157.938C157.938 124.766 157.844 124.375 157.656 124.031C157.479 123.677 157.198 123.401 156.812 123.203C156.438 122.995 155.948 122.891 155.344 122.891C154.844 122.891 154.411 122.979 154.047 123.156C153.682 123.323 153.401 123.552 153.203 123.844C153.016 124.125 152.922 124.438 152.922 124.781C152.922 125.042 152.974 125.276 153.078 125.484C153.193 125.682 153.375 125.865 153.625 126.031C153.875 126.198 154.198 126.354 154.594 126.5C155 126.635 155.5 126.76 156.094 126.875C157.312 127.125 158.401 127.453 159.359 127.859C160.318 128.255 161.078 128.797 161.641 129.484C162.203 130.161 162.484 131.052 162.484 132.156C162.484 132.906 162.318 133.594 161.984 134.219C161.651 134.844 161.172 135.391 160.547 135.859C159.922 136.318 159.172 136.677 158.297 136.938C157.432 137.188 156.458 137.312 155.375 137.312C153.802 137.312 152.469 137.031 151.375 136.469C150.292 135.906 149.469 135.193 148.906 134.328C148.354 133.453 148.078 132.557 148.078 131.641H152.344C152.365 132.255 152.521 132.75 152.812 133.125C153.115 133.5 153.495 133.771 153.953 133.938C154.422 134.104 154.927 134.188 155.469 134.188C156.052 134.188 156.536 134.109 156.922 133.953C157.307 133.786 157.599 133.568 157.797 133.297C158.005 133.016 158.109 132.693 158.109 132.328Z" fill="white"/>
<path d="M120.698 48H110.68V95.1333H120.698V48Z" fill="#FF4791"/>
<path d="M139.378 76.5496L139.378 66.5837L92.0001 66.5837L92.0001 76.5496L139.378 76.5496Z" fill="#FF4791"/>
<path d="M74.9735 80.8033L61.0685 95H0V0H45.4041C72.079 0 91.8865 18.4613 91.8865 43.6001C91.4354 57.722 85.356 71.0949 74.9735 80.8033ZM7.88896 7.35086V87.6491H57.8902L69.6385 75.5848C74.1391 71.4917 77.7752 66.558 80.3372 61.0684C82.8991 55.5787 84.336 49.6417 84.5651 43.6001C84.5651 22.4454 68.1061 7.35086 45.4041 7.35086H7.88896ZM64.0197 69.5245L54.8254 78.8954H15.8347V16.1045H45.4041C49.3506 15.9149 53.2951 16.5183 56.9991 17.8784C60.7031 19.2385 64.0898 21.3269 66.9544 24.0175C69.8191 26.7082 72.1022 29.9451 73.6658 33.5327C75.2295 37.1204 76.0411 40.9842 76.0518 44.8907C75.8307 49.5869 74.6507 54.1903 72.583 58.4238C70.5152 62.6573 67.6023 66.4333 64.0197 69.5245ZM23.4966 23.4554V71.4885H51.8742L58.9118 64.306C64.5894 59.3374 68.0732 52.368 68.6169 44.8907C68.6077 41.9485 67.9892 39.0393 66.7994 36.3424C65.6096 33.6456 63.8739 31.2182 61.699 29.2099C59.5242 27.2016 56.9564 25.655 54.1539 24.6653C51.3514 23.6756 48.3736 23.2638 45.4041 23.4554H23.4966ZM53.8606 58.2457L49.3202 62.7909H31.4991V32.2091H45.4041C47.315 32.0787 49.2327 32.3369 51.0388 32.9678C52.8449 33.5986 54.501 34.5887 55.9051 35.877C57.3091 37.1652 58.4312 38.7243 59.2021 40.4579C59.9731 42.1916 60.3765 44.0631 60.3874 45.9569C59.8827 50.7281 57.5467 55.1263 53.8606 58.2457ZM38.3097 38.8305V56.1134H46.1987L48.8661 53.4761C50.0512 52.6313 51.0534 51.5606 51.8137 50.3271C52.5739 49.0936 53.0769 47.7222 53.293 46.2936C53.2887 45.2567 53.0676 44.2319 52.6435 43.2836C52.2194 42.3353 51.6015 41.484 50.8287 40.7831C50.0558 40.0822 49.1447 39.5469 48.1526 39.2109C47.1604 38.8749 46.1087 38.7453 45.0635 38.8305H38.3097Z" fill="white"/>
</svg>
